<svg xmlns="http://www.w3.org/2000/svg" width="1200" height="400" viewBox="0 0 1200 400" fill="none">
  <!-- Sky Background -->
  <rect width="1200" height="400" fill="#E6F0FF"/>
  
  <!-- Distant Mountains -->
  <path d="M0 250L100 200L200 230L300 190L400 220L500 180L600 210L700 170L800 200L900 160L1000 190L1100 150L1200 180V400H0V250Z" fill="#D1E0F5"/>
  
  <!-- Middle Ground -->
  <path d="M0 280L50 270L100 290L150 275L200 295L250 280L300 300L350 285L400 305L450 290L500 310L550 295L600 315L650 300L700 320L750 305L800 325L850 310L900 330L950 315L1000 335L1050 320L1100 340L1150 325L1200 345V400H0V280Z" fill="#B3CFED"/>
  
  <!-- City Skyline -->
  <!-- Smart Buildings -->
  <rect x="100" y="220" width="40" height="80" fill="#1E40AF"/>
  <rect x="105" y="225" width="30" height="70" fill="#FFFFFF"/>
  <rect x="110" y="230" width="5" height="5" fill="#1E40AF"/>
  <rect x="120" y="230" width="5" height="5" fill="#1E40AF"/>
  <rect x="110" y="240" width="5" height="5" fill="#1E40AF"/>
  <rect x="120" y="240" width="5" height="5" fill="#1E40AF"/>
  <rect x="110" y="250" width="5" height="5" fill="#1E40AF"/>
  <rect x="120" y="250" width="5" height="5" fill="#1E40AF"/>
  
  <rect x="150" y="200" width="30" height="100" fill="#1E40AF"/>
  <rect x="155" y="205" width="20" height="90" fill="#FFFFFF"/>
  <rect x="160" y="210" width="4" height="4" fill="#1E40AF"/>
  <rect x="166" y="210" width="4" height="4" fill="#1E40AF"/>
  <rect x="160" y="218" width="4" height="4" fill="#1E40AF"/>
  <rect x="166" y="218" width="4" height="4" fill="#1E40AF"/>
  <rect x="160" y="226" width="4" height="4" fill="#1E40AF"/>
  <rect x="166" y="226" width="4" height="4" fill="#1E40AF"/>
  
  <rect x="200" y="230" width="50" height="70" fill="#1E40AF"/>
  <rect x="205" y="235" width="40" height="60" fill="#FFFFFF"/>
  <rect x="210" y="240" width="6" height="6" fill="#1E40AF"/>
  <rect x="220" y="240" width="6" height="6" fill="#1E40AF"/>
  <rect x="230" y="240" width="6" height="6" fill="#1E40AF"/>
  <rect x="210" y="250" width="6" height="6" fill="#1E40AF"/>
  <rect x="220" y="250" width="6" height="6" fill="#1E40AF"/>
  <rect x="230" y="250" width="6" height="6" fill="#1E40AF"/>
  
  <!-- Modern Tower -->
  <rect x="300" y="180" width="40" height="120" fill="#1E40AF"/>
  <rect x="305" y="185" width="30" height="110" fill="#FFFFFF"/>
  <rect x="310" y="190" width="5" height="5" fill="#1E40AF"/>
  <rect x="320" y="190" width="5" height="5" fill="#1E40AF"/>
  <rect x="310" y="200" width="5" height="5" fill="#1E40AF"/>
  <rect x="320" y="200" width="5" height="5" fill="#1E40AF"/>
  <rect x="310" y="210" width="5" height="5" fill="#1E40AF"/>
  <rect x="320" y="210" width="5" height="5" fill="#1E40AF"/>
  
  <!-- Industrial Zone -->
  <rect x="400" y="240" width="60" height="60" fill="#1E40AF"/>
  <rect x="405" y="245" width="50" height="50" fill="#FFFFFF"/>
  <rect x="410" y="250" width="40" height="40" fill="#1E40AF"/>
  <rect x="415" y="255" width="30" height="30" fill="#FFFFFF"/>
  
  <!-- Solar Panels -->
  <rect x="500" y="260" width="80" height="40" fill="#1E40AF"/>
  <rect x="505" y="265" width="70" height="30" fill="#FFB800"/>
  <path d="M505 265L575 295M505 295L575 265" stroke="#1E40AF" stroke-width="2"/>
  <path d="M505 265L575 265M505 280L575 280M505 295L575 295" stroke="#1E40AF" stroke-width="2"/>
  <path d="M520 265L520 295M535 265L535 295M550 265L550 295M565 265L565 295" stroke="#1E40AF" stroke-width="2"/>
  
  <!-- Airport -->
  <rect x="620" y="270" width="100" height="30" fill="#1E40AF"/>
  <rect x="625" y="275" width="90" height="20" fill="#FFFFFF"/>
  <path d="M670 240L680 275H660L670 240Z" fill="#1E40AF"/>
  <rect x="665" y="275" width="10" height="20" fill="#1E40AF"/>
  
  <!-- More Buildings -->
  <rect x="750" y="220" width="30" height="80" fill="#1E40AF"/>
  <rect x="755" y="225" width="20" height="70" fill="#FFFFFF"/>
  
  <rect x="800" y="200" width="40" height="100" fill="#1E40AF"/>
  <rect x="805" y="205" width="30" height="90" fill="#FFFFFF"/>
  
  <rect x="860" y="230" width="50" height="70" fill="#1E40AF"/>
  <rect x="865" y="235" width="40" height="60" fill="#FFFFFF"/>
  
  <!-- Smart Tower -->
  <rect x="950" y="180" width="40" height="120" fill="#1E40AF"/>
  <rect x="955" y="185" width="30" height="110" fill="#FFFFFF"/>
  
  <!-- Semiconductor Plant -->
  <rect x="1020" y="220" width="80" height="80" fill="#1E40AF"/>
  <rect x="1025" y="225" width="70" height="70" fill="#FFFFFF"/>
  <path d="M1025 225L1095 295M1025 295L1095 225" stroke="#1E40AF" stroke-width="2"/>
  <circle cx="1060" cy="260" r="20" fill="#1E40AF"/>
  <circle cx="1060" cy="260" r="15" fill="#FFFFFF"/>
  <circle cx="1060" cy="260" r="10" fill="#1E40AF"/>
  <circle cx="1060" cy="260" r="5" fill="#FFFFFF"/>
  
  <!-- Foreground -->
  <path d="M0 320L50 310L100 330L150 315L200 335L250 320L300 340L350 325L400 345L450 330L500 350L550 335L600 355L650 340L700 360L750 345L800 365L850 350L900 370L950 355L1000 375L1050 360L1100 380L1150 365L1200 385V400H0V320Z" fill="#90B4DB"/>
  
  <!-- Roads -->
  <path d="M0 350H1200" stroke="#1E40AF" stroke-width="3"/>
  <path d="M100 350V400" stroke="#1E40AF" stroke-width="3"/>
  <path d="M300 350V400" stroke="#1E40AF" stroke-width="3"/>
  <path d="M500 350V400" stroke="#1E40AF" stroke-width="3"/>
  <path d="M700 350V400" stroke="#1E40AF" stroke-width="3"/>
  <path d="M900 350V400" stroke="#1E40AF" stroke-width="3"/>
  <path d="M1100 350V400" stroke="#1E40AF" stroke-width="3"/>
  
  <!-- Sun -->
  <circle cx="900" cy="100" r="40" fill="#FFB800"/>
  <circle cx="900" cy="100" r="30" fill="#FFD700"/>
</svg>