<svg xmlns="http://www.w3.org/2000/svg" width="200" height="60" viewBox="0 0 200 60" fill="none">
  <path d="M20 10H30C35.523 10 40 14.477 40 20V40C40 45.523 35.523 50 30 50H20C14.477 50 10 45.523 10 40V20C10 14.477 14.477 10 20 10Z" fill="#1E40AF"/>
  <path d="M20 15C17.239 15 15 17.239 15 20V40C15 42.761 17.239 45 20 45H30C32.761 45 35 42.761 35 40V20C35 17.239 32.761 15 30 15H20Z" fill="white"/>
  <path d="M20 20C19.448 20 19 20.448 19 21V39C19 39.552 19.448 40 20 40H30C30.552 40 31 39.552 31 39V21C31 20.448 30.552 20 30 20H20Z" fill="#1E40AF"/>
  <path d="M50 20H55V40H50V20Z" fill="#1E40AF"/>
  <path d="M60 20H65C70.523 20 75 24.477 75 30V30C75 35.523 70.523 40 65 40H60V20Z" fill="#1E40AF"/>
  <path d="M65 25H65V35H65C67.761 35 70 32.761 70 30V30C70 27.239 67.761 25 65 25Z" fill="white"/>
  <path d="M80 20H85V35H95V40H80V20Z" fill="#1E40AF"/>
  <path d="M100 20H115V25H105V27.5H112.5V32.5H105V35H115V40H100V20Z" fill="#1E40AF"/>
  <path d="M120 20H125V27.5L132.5 20H140L130 30L140 40H132.5L125 32.5V40H120V20Z" fill="#1E40AF"/>
  <path d="M145 20H160V25H150V27.5H157.5V32.5H150V35H160V40H145V20Z" fill="#1E40AF"/>
  <path d="M165 20H170V35H180V40H165V20Z" fill="#1E40AF"/>
  <path d="M185 20H190V40H185V20Z" fill="#1E40AF"/>
  <path d="M165 10H170L172.5 15H167.5L165 10Z" fill="#FFB800"/>
  <path d="M175 10H180L182.5 15H177.5L175 10Z" fill="#FFB800"/>
  <path d="M185 10H190L192.5 15H187.5L185 10Z" fill="#FFB800"/>
  <path d="M25 25L27.5 30L25 35" stroke="white" stroke-width="1.5" stroke-linecap="round" stroke-linejoin="round"/>
</svg>