<svg xmlns="http://www.w3.org/2000/svg" width="300" height="200" viewBox="0 0 300 200" fill="none">
  <rect width="300" height="200" rx="10" fill="#E6F0FF"/>
  
  <!-- Semiconductor Chip Base -->
  <rect x="75" y="50" width="150" height="100" rx="5" fill="#1E40AF"/>
  <rect x="85" y="60" width="130" height="80" rx="3" fill="#FFFFFF"/>
  
  <!-- Circuit Patterns -->
  <path d="M85 80H215M85 100H215M85 120H215" stroke="#1E40AF" stroke-width="2"/>
  <path d="M105 60V140M125 60V140M145 60V140M165 60V140M185 60V140M205 60V140" stroke="#1E40AF" stroke-width="2"/>
  
  <!-- Connection Points -->
  <circle cx="105" cy="80" r="3" fill="#FFB800"/>
  <circle cx="125" cy="80" r="3" fill="#FFB800"/>
  <circle cx="145" cy="80" r="3" fill="#FFB800"/>
  <circle cx="165" cy="80" r="3" fill="#FFB800"/>
  <circle cx="185" cy="80" r="3" fill="#FFB800"/>
  <circle cx="205" cy="80" r="3" fill="#FFB800"/>
  
  <circle cx="105" cy="100" r="3" fill="#FFB800"/>
  <circle cx="125" cy="100" r="3" fill="#FFB800"/>
  <circle cx="145" cy="100" r="3" fill="#FFB800"/>
  <circle cx="165" cy="100" r="3" fill="#FFB800"/>
  <circle cx="185" cy="100" r="3" fill="#FFB800"/>
  <circle cx="205" cy="100" r="3" fill="#FFB800"/>
  
  <circle cx="105" cy="120" r="3" fill="#FFB800"/>
  <circle cx="125" cy="120" r="3" fill="#FFB800"/>
  <circle cx="145" cy="120" r="3" fill="#FFB800"/>
  <circle cx="165" cy="120" r="3" fill="#FFB800"/>
  <circle cx="185" cy="120" r="3" fill="#FFB800"/>
  <circle cx="205" cy="120" r="3" fill="#FFB800"/>
  
  <!-- Pins -->
  <rect x="70" y="70" width="10" height="2" fill="#1E40AF"/>
  <rect x="70" y="90" width="10" height="2" fill="#1E40AF"/>
  <rect x="70" y="110" width="10" height="2" fill="#1E40AF"/>
  <rect x="70" y="130" width="10" height="2" fill="#1E40AF"/>
  
  <rect x="220" y="70" width="10" height="2" fill="#1E40AF"/>
  <rect x="220" y="90" width="10" height="2" fill="#1E40AF"/>
  <rect x="220" y="110" width="10" height="2" fill="#1E40AF"/>
  <rect x="220" y="130" width="10" height="2" fill="#1E40AF"/>
</svg>