<svg version="1.1" id="Layer_1" xmlns="http://www.w3.org/2000/svg" xmlns:xlink="http://www.w3.org/1999/xlink" x="0px" y="0px"
	 width="100%" viewBox="0 0 384 384" enable-background="new 0 0 384 384" xml:space="preserve">
<path fill="#000000" opacity="1.000000" stroke="none" 
	d="
M279.597473,192.569855 
	C276.997955,196.041687 274.579468,199.208328 272.297729,202.470657 
	C269.610016,206.313354 266.100098,206.305008 262.744659,204.039185 
	C237.565964,187.036865 212.496674,169.872665 187.356888,152.812546 
	C173.752747,143.580643 160.061218,134.477600 146.441193,125.268967 
	C139.700653,120.711609 133.029251,116.051872 126.332588,111.429741 
	C111.413139,101.132126 95.936928,102.430870 83.081482,115.076103 
	C80.724998,117.394051 77.874619,120.862175 74.792885,118.245529 
	C71.584511,115.521339 74.775108,112.072746 76.663971,109.490105 
	C91.760040,88.849144 106.926964,68.259720 122.143089,47.707016 
	C125.826584,42.731655 129.390823,42.160992 134.580017,45.679466 
	C167.983231,68.328178 201.359070,91.017349 234.725052,113.720894 
	C247.756393,122.587921 260.785309,131.459946 273.727814,140.455597 
	C282.599976,146.622177 291.868530,145.706512 301.229401,142.221115 
	C306.436859,140.282196 310.429596,136.315521 314.805847,133.026382 
	C316.821167,131.511658 318.778473,128.322052 321.432617,130.880600 
	C323.726898,133.092239 321.804565,135.833755 320.179169,138.013870 
	C311.459473,149.709442 302.706879,161.380524 293.996979,173.083389 
	C289.245636,179.467422 284.556274,185.897614 279.597473,192.569855 
z"/>
<path fill="#000000" opacity="1.000000" stroke="none" 
	d="
M100.275665,160.287628 
	C103.631676,155.925430 106.770485,151.848251 109.865204,147.737869 
	C113.698959,142.645920 115.559097,142.255508 120.965446,145.899567 
	C133.630081,154.435974 146.252167,163.035675 158.873718,171.635818 
	C170.952774,179.866318 183.012482,188.125259 195.070724,196.386246 
	C196.165482,197.136276 197.403427,197.822586 198.199020,198.834106 
	C199.905914,201.004242 199.850830,202.843887 196.575485,203.283691 
	C195.427582,203.437805 194.247223,203.370239 193.081696,203.370392 
	C154.768967,203.374985 116.456223,203.390305 78.143585,203.335190 
	C76.107124,203.332245 73.410561,204.361313 72.187210,202.089157 
	C70.809769,199.530792 72.721169,197.401459 74.233551,195.367905 
	C82.853226,183.777893 91.440567,172.163834 100.275665,160.287628 
z"/>
<path fill="#000000" opacity="1.000000" stroke="none" 
	d="
M244.000076,43.630470 
	C270.582581,43.630089 296.665100,43.630089 322.423065,43.630089 
	C323.990540,47.173252 322.464874,49.119797 320.933807,51.169018 
	C308.929962,67.234848 296.949127,83.317986 285.004761,99.428055 
	C281.461761,104.206711 279.863281,104.744583 274.788696,101.399361 
	C264.121246,94.367188 253.585526,87.134659 243.016220,79.954208 
	C228.464508,70.068207 213.916031,60.177208 199.412292,50.221153 
	C197.743484,49.075596 195.099915,48.157104 195.953293,45.406986 
	C196.855392,42.499931 199.623322,43.730862 201.555603,43.714333 
	C215.536301,43.594734 229.518402,43.638687 244.000076,43.630470 
z"/>
<path fill="#000000" opacity="1.000000" stroke="none" 
	d="
M284.957458,252.663361 
	C289.950256,252.511185 294.465027,252.478790 298.769989,253.991165 
	C303.006409,255.479431 306.727722,257.669800 307.281921,262.753906 
	C307.909760,268.514069 307.276886,273.775238 301.321777,276.796051 
	C300.163483,277.383636 298.675720,277.431152 297.660522,279.167297 
	C299.748322,284.784424 305.517639,288.463348 307.761536,294.370850 
	C299.499664,296.919556 295.276581,295.738861 290.248138,289.663940 
	C288.131683,287.107056 285.770142,284.709808 283.967529,281.947906 
	C281.987213,278.913788 279.218628,279.054871 276.454987,279.580414 
	C273.317627,280.177032 274.588715,282.991730 274.373077,284.957092 
	C274.210480,286.439209 274.189606,287.970886 274.364990,289.449738 
	C274.896332,293.928802 273.224579,295.563782 268.528290,295.516083 
	C264.005768,295.470154 262.433777,294.191681 262.566315,289.550262 
	C262.870697,278.893585 262.776215,268.220428 262.600220,257.557953 
	C262.539886,253.903641 263.759918,252.456604 267.469086,252.592239 
	C273.127747,252.799164 278.799103,252.657257 284.957458,252.663361 
M295.046631,267.689484 
	C295.542664,263.677887 295.125214,259.709930 291.042816,257.947632 
	C286.085236,255.807495 280.733459,255.685120 275.449554,257.070343 
	C275.083527,257.166290 274.623627,257.828674 274.617737,258.233643 
	C274.542755,263.385986 274.509094,268.539856 274.576752,273.691864 
	C274.583466,274.203003 275.227142,274.859100 275.741608,275.186462 
	C280.852997,278.438934 292.495178,274.257599 295.046631,267.689484 
z"/>
<path fill="#000000" opacity="1.000000" stroke="none" 
	d="
M212.131989,255.833191 
	C222.909363,251.287323 233.588760,251.109253 244.042526,255.045120 
	C254.188705,258.865173 255.861893,267.616150 255.345901,277.212738 
	C254.902054,285.467438 251.381607,291.800323 243.280701,294.360168 
	C232.520294,297.760315 221.393738,298.456451 211.452789,292.400391 
	C199.406174,285.061554 199.590225,263.427948 212.131989,255.833191 
M230.937927,292.559906 
	C235.869598,291.680054 239.566406,289.278076 241.162308,284.277771 
	C243.237564,277.775513 243.352448,271.242065 241.172302,264.770172 
	C239.157974,258.790588 234.147812,255.800507 227.594330,256.404480 
	C221.304169,256.984192 217.462997,260.584778 216.471130,267.175262 
	C215.813812,271.542755 215.366302,275.826630 216.200989,280.388794 
	C217.761642,288.918976 221.296570,292.458557 230.937927,292.559906 
z"/>
<path fill="#000000" opacity="1.000000" stroke="none" 
	d="
M25.549006,259.342773 
	C33.078640,266.352997 40.315125,273.145844 48.662609,280.981598 
	C48.662609,273.038788 48.658047,266.477112 48.666061,259.915436 
	C48.667892,258.418610 48.709843,256.921753 48.739281,255.425034 
	C48.775936,253.561325 49.763882,252.773056 51.589935,252.782043 
	C53.492729,252.791412 54.278587,253.791733 54.289291,255.568787 
	C54.318356,260.393494 54.350189,265.218262 54.354477,270.043030 
	C54.360245,276.532013 54.426025,283.022888 54.281677,289.508850 
	C54.237831,291.478790 55.358059,294.350281 52.467545,295.056854 
	C49.810261,295.706421 46.862247,296.046539 44.450619,293.794403 
	C40.451458,290.059723 36.254898,286.526428 32.393188,282.657074 
	C27.264273,277.518036 21.899738,272.685059 15.343403,267.500031 
	C15.343403,275.502838 15.447820,282.585815 15.280336,289.662354 
	C15.229506,291.810059 16.600058,295.349030 12.395746,295.170898 
	C8.385983,295.001068 9.747128,291.554840 9.717264,289.387970 
	C9.575121,279.074097 9.607386,268.756805 9.694592,258.441742 
	C9.710288,256.585052 8.751973,253.935165 11.115967,253.124588 
	C13.726323,252.229507 16.682693,251.959091 19.157784,254.042419 
	C21.182285,255.746506 22.743046,258.007385 25.549006,259.342773 
z"/>
<path fill="#000000" opacity="1.000000" stroke="none" 
	d="
M382.845337,290.443237 
	C383.498230,292.009399 384.350952,293.161682 383.563690,294.773407 
	C380.485657,295.957825 377.146088,295.271729 373.877411,295.299957 
	C371.177765,295.323273 370.211975,293.142609 369.582550,291.084930 
	C367.605194,284.620483 363.388367,282.114655 356.797241,283.330627 
	C355.830688,283.508881 354.777679,283.504852 353.808411,283.335266 
	C347.336609,282.202759 343.023956,284.313538 341.029358,290.955505 
	C339.977386,294.458618 337.621979,296.717072 332.997559,294.458435 
	C336.174927,287.563995 339.370819,280.675720 342.526062,273.768860 
	C345.287018,267.725189 348.914795,262.094116 351.084198,255.769943 
	C352.011108,253.067871 354.107513,252.490509 356.651306,252.658554 
	C360.283142,252.898453 364.195770,251.522110 366.423004,256.395142 
	C371.605194,267.733246 377.221375,278.873047 382.845337,290.443237 
M349.912018,272.375977 
	C349.129578,274.472046 347.292175,276.214844 347.777985,279.338409 
	C352.709564,279.920929 357.653198,279.681396 363.417725,279.455750 
	C360.600769,273.139801 358.904449,267.230927 355.047211,262.022675 
	C354.121643,263.904724 353.405640,265.368927 352.682190,266.829468 
	C351.875977,268.457153 351.063019,270.081451 349.912018,272.375977 
z"/>
<path fill="#000000" opacity="1.000000" stroke="none" 
	d="
M115.634277,290.944824 
	C122.065697,292.592316 127.968567,291.342438 133.812042,290.264587 
	C136.300369,289.805634 138.296509,288.137634 138.608566,285.182007 
	C138.937759,282.063873 136.657974,281.054291 134.467194,280.397034 
	C128.936279,278.737640 123.260086,277.554932 117.749947,275.835632 
	C108.826012,273.051056 106.997421,270.453979 107.653572,262.469696 
	C108.065781,257.453796 113.034821,253.293106 120.453949,252.828598 
	C127.914246,252.361496 135.426224,252.659424 142.914291,252.739517 
	C144.757751,252.759232 147.015121,253.237061 146.764893,255.607697 
	C146.530838,257.825195 144.166718,257.423737 142.658615,257.273132 
	C136.725494,256.680664 130.844315,255.709396 124.888412,257.334229 
	C122.177383,258.073822 119.562744,258.668121 119.469200,262.093506 
	C119.378571,265.412323 121.887215,266.753357 124.485107,267.453094 
	C130.389587,269.043457 136.429779,270.140350 142.309326,271.809418 
	C146.633926,273.037079 150.205780,275.233307 150.374664,280.631439 
	C150.593826,287.636993 149.303131,290.088074 143.431717,292.937073 
	C139.118500,295.029999 134.564514,295.485626 129.855316,295.401337 
	C124.031677,295.297089 118.204941,295.372833 112.379608,295.352600 
	C110.192375,295.345032 107.263031,295.237732 107.178322,292.784271 
	C107.061348,289.396210 110.366982,291.087250 112.209579,290.712372 
	C113.156715,290.519775 114.194130,290.770935 115.634277,290.944824 
z"/>
<path fill="#000000" opacity="1.000000" stroke="none" 
	d="
M84.083466,271.649292 
	C86.736160,271.649139 88.947098,271.374634 91.057243,271.718567 
	C93.718025,272.152222 98.564133,270.013519 98.512657,273.627838 
	C98.466492,276.869781 93.548531,275.073792 90.817451,275.292267 
	C86.843613,275.610138 82.821838,275.486633 78.827873,275.344330 
	C75.732376,275.234009 74.239777,276.227661 74.306000,279.601868 
	C74.594505,294.301025 72.507210,291.330627 85.957115,291.636993 
	C90.453857,291.739441 94.954887,291.640961 99.453331,291.690765 
	C100.568672,291.703094 101.994835,291.549591 102.104301,293.221466 
	C102.227547,295.103821 100.795738,295.328369 99.408592,295.330322 
	C88.244934,295.345886 77.081223,295.319092 65.917557,295.332092 
	C63.583942,295.334839 62.678158,294.163147 62.682995,291.926971 
	C62.708942,279.930054 62.711147,267.933014 62.683132,255.936096 
	C62.677628,253.578522 63.866871,252.685974 66.078194,252.687958 
	C77.075241,252.697845 88.072357,252.667084 99.069298,252.700989 
	C100.359146,252.704956 102.035934,252.704483 101.901360,254.636765 
	C101.772331,256.489410 100.084145,256.322510 98.818047,256.335144 
	C92.820007,256.394867 86.806786,256.633911 80.827148,256.301758 
	C75.995682,256.033386 73.968399,257.302032 74.223228,262.629608 
	C74.698753,272.571259 73.460754,271.602783 84.083466,271.649292 
z"/>
<path fill="#000000" opacity="1.000000" stroke="none" 
	d="
M153.141205,254.940659 
	C153.749146,251.896561 155.956848,252.723602 157.589142,252.712646 
	C170.240250,252.627655 182.892380,252.622086 195.543488,252.703384 
	C197.151474,252.713715 199.932251,251.897400 199.805588,254.628082 
	C199.686188,257.202057 196.965607,256.044739 195.331635,256.350677 
	C194.848877,256.441101 194.335327,256.362915 193.835999,256.369537 
	C180.392654,256.548157 182.502975,254.709961 182.353088,268.166565 
	C182.269669,275.656799 182.095566,283.158478 182.407501,290.636444 
	C182.633286,296.048828 179.180756,295.225952 175.855881,295.419067 
	C172.125107,295.635803 170.461472,294.526733 170.571609,290.408478 
	C170.829666,280.760193 170.501694,271.096802 170.723053,261.446655 
	C170.814575,257.456696 169.337830,256.282257 165.488907,256.280182 
	C161.422226,256.277985 157.197647,257.385071 153.141205,254.940659 
z"/>
<path fill="#000000" opacity="1.000000" stroke="none" 
	d="
M137.727814,342.783966 
	C128.662323,337.990631 128.197678,328.653229 130.939163,322.437225 
	C133.809525,315.928986 142.559967,313.086365 150.312729,315.870270 
	C151.830338,316.415222 153.550354,317.268311 154.431488,318.508881 
	C155.742218,320.354218 158.834808,322.541168 156.488815,324.858429 
	C154.388870,326.932648 151.282928,326.216278 148.794708,324.150696 
	C144.513290,320.596527 139.692322,321.448639 137.545914,326.098389 
	C135.626801,330.255676 137.146317,333.474457 140.597656,335.990234 
	C144.289581,338.681396 147.307999,337.608948 150.123672,334.210388 
	C148.073029,332.952209 146.038635,333.602264 144.144821,333.338135 
	C142.200989,333.067047 141.758148,331.888855 141.791290,330.198395 
	C141.823563,328.550934 142.652481,327.826294 144.246902,327.727814 
	C147.392807,327.533539 150.532257,327.220947 153.679794,327.071259 
	C157.359360,326.896332 158.736588,328.764740 158.277634,332.343781 
	C157.329742,339.735565 149.182861,345.551849 141.926102,343.928375 
	C140.637207,343.640045 139.360397,343.297760 137.727814,342.783966 
z"/>
<path fill="#000000" opacity="1.000000" stroke="none" 
	d="
M318.168457,295.264038 
	C315.167969,294.529785 315.702057,292.394318 315.692780,290.685455 
	C315.632019,279.522583 315.842590,268.355011 315.582550,257.197876 
	C315.451782,251.586777 319.168945,252.792053 322.312012,252.667419 
	C325.591003,252.537369 328.561798,252.305435 328.421814,257.311249 
	C328.128448,267.799927 328.341614,278.302277 328.314423,288.798950 
	C328.297485,295.339508 328.270905,295.342010 321.641296,295.367889 
	C320.641907,295.371796 319.642426,295.338806 318.168457,295.264038 
z"/>
<path fill="#000000" opacity="1.000000" stroke="none" 
	d="
M213.688034,331.932190 
	C211.988937,340.434540 204.455231,345.695312 196.883316,343.990387 
	C187.882553,341.963776 182.832550,334.493744 184.674515,325.931000 
	C186.345413,318.163574 194.545197,313.381683 202.816483,315.351013 
	C211.062759,317.314392 213.897171,321.534393 213.688034,331.932190 
M192.394928,326.736328 
	C191.213226,331.762665 193.056885,335.816650 197.195633,337.292511 
	C200.394409,338.433167 204.444260,336.272461 206.031815,332.578125 
	C207.626083,328.868225 205.994812,324.234680 202.409439,322.288818 
	C198.638672,320.242340 195.635910,321.397552 192.394928,326.736328 
z"/>
<path fill="#000000" opacity="1.000000" stroke="none" 
	d="
M160.664627,338.838348 
	C160.659348,332.373993 160.828491,326.383759 160.600525,320.408661 
	C160.455826,316.616150 162.029999,315.378754 165.596512,315.624847 
	C168.408844,315.818909 171.249512,315.563965 174.070007,315.685089 
	C181.141602,315.988800 185.458023,323.372406 180.876450,328.697174 
	C176.977432,333.228668 178.601547,336.132996 180.932785,339.820557 
	C181.358231,340.493561 181.672379,341.236938 182.212448,342.287262 
	C178.963913,343.702667 176.028214,344.466248 173.695450,341.367828 
	C171.937302,339.032593 170.582581,336.393616 168.905930,333.657532 
	C166.597534,335.325317 167.520615,337.479736 167.366531,339.268799 
	C167.187378,341.348724 167.254150,343.259460 164.293839,343.330505 
	C161.330399,343.401611 160.521439,341.879913 160.664627,338.838348 
M174.534698,324.520569 
	C174.042816,321.413055 171.831726,321.130432 169.390228,321.565308 
	C167.197540,321.955872 167.344025,323.784485 167.426102,325.438629 
	C167.479874,326.522400 168.014557,327.351654 169.137726,327.498413 
	C171.326050,327.784271 173.452148,327.790649 174.534698,324.520569 
z"/>
<path fill="#000000" opacity="1.000000" stroke="none" 
	d="
M223.902740,343.592865 
	C217.872070,341.845154 215.688721,337.754730 215.602753,332.246979 
	C215.543198,328.430878 215.573730,324.612183 215.636948,320.795837 
	C215.677155,318.368958 215.136810,315.597382 219.147125,315.688751 
	C222.861130,315.773376 222.268051,318.363861 222.315552,320.597046 
	C222.386215,323.916687 222.236649,327.243927 222.392685,330.557983 
	C222.550293,333.905457 223.688507,337.325623 227.439362,337.387817 
	C231.270203,337.451324 232.428482,334.009949 232.594299,330.655151 
	C232.782654,326.844177 232.746902,323.018402 232.695053,319.200592 
	C232.660522,316.656982 233.781143,315.641327 236.304428,315.691345 
	C238.813400,315.741089 239.329437,317.165283 239.317642,319.254150 
	C239.294205,323.405060 239.365097,327.556580 239.333969,331.707367 
	C239.265839,340.795868 233.297989,345.546753 223.902740,343.592865 
z"/>
<path fill="#000000" opacity="1.000000" stroke="none" 
	d="
M254.117676,333.371796 
	C249.983734,332.983276 249.171066,335.069611 249.300385,338.257782 
	C249.398834,340.684753 249.861786,343.483002 245.801895,343.321045 
	C242.089752,343.172974 242.702148,340.551941 242.677643,338.334595 
	C242.613235,332.510529 242.814667,326.679352 242.597046,320.862701 
	C242.456604,317.109039 243.545227,315.188202 247.628448,315.620728 
	C249.767578,315.847382 251.951172,315.641388 254.114563,315.654114 
	C261.284790,315.696289 264.125916,318.116333 264.292084,324.306152 
	C264.429138,329.413269 260.878845,332.710571 254.117676,333.371796 
M253.279007,321.414398 
	C251.062714,321.299500 249.331467,321.742249 249.372894,324.522552 
	C249.397400,326.167755 249.712280,327.461456 251.703918,327.580841 
	C253.639954,327.696869 255.466064,327.297638 256.255737,325.411530 
	C257.104431,323.384491 256.279449,321.908783 253.279007,321.414398 
z"/>
</svg>