<svg xmlns="http://www.w3.org/2000/svg" width="48" height="48" viewBox="0 0 48 48" fill="none">
  <rect width="48" height="48" rx="24" fill="#E6F0FF"/>
  <path d="M24 6C14.059 6 6 14.059 6 24C6 33.941 14.059 42 24 42C33.941 42 42 33.941 42 24C42 14.059 33.941 6 24 6ZM24 40C15.178 40 8 32.822 8 24C8 15.178 15.178 8 24 8C32.822 8 40 15.178 40 24C40 32.822 32.822 40 24 40Z" fill="#1E40AF"/>
  <path d="M35.707 12.293C35.316 11.902 34.684 11.902 34.293 12.293L12.293 34.293C11.902 34.684 11.902 35.316 12.293 35.707C12.488 35.902 12.744 36 13 36C13.256 36 13.512 35.902 13.707 35.707L35.707 13.707C36.098 13.316 36.098 12.684 35.707 12.293Z" fill="#1E40AF"/>
  <path d="M24 14C18.486 14 14 18.486 14 24C14 29.514 18.486 34 24 34C29.514 34 34 29.514 34 24C34 18.486 29.514 14 24 14ZM24 32C19.589 32 16 28.411 16 24C16 19.589 19.589 16 24 16C28.411 16 32 19.589 32 24C32 28.411 28.411 32 24 32Z" fill="#1E40AF"/>
  <path d="M24 20C21.794 20 20 21.794 20 24C20 26.206 21.794 28 24 28C26.206 28 28 26.206 28 24C28 21.794 26.206 20 24 20ZM24 26C22.897 26 22 25.103 22 24C22 22.897 22.897 22 24 22C25.103 22 26 22.897 26 24C26 25.103 25.103 26 24 26Z" fill="#1E40AF"/>
</svg>