<svg xmlns="http://www.w3.org/2000/svg" width="48" height="48" viewBox="0 0 48 48" fill="none">
  <rect width="48" height="48" rx="24" fill="#E6F0FF"/>
  <path d="M36 32H34V18C34 17.448 33.552 17 33 17H27C26.448 17 26 17.448 26 18V32H24V22C24 21.448 23.552 21 23 21H17C16.448 21 16 21.448 16 22V32H14V26C14 25.448 13.552 25 13 25H7C6.448 25 6 25.448 6 26V32H4C3.448 32 3 32.448 3 33C3 33.552 3.448 34 4 34H36C36.552 34 37 33.552 37 33C37 32.448 36.552 32 36 32ZM8 32V27H12V32H8ZM18 32V23H22V32H18ZM28 32V19H32V32H28Z" fill="#1E40AF"/>
  <path d="M44 32H42V14C42 13.448 41.552 13 41 13H35C34.448 13 34 13.448 34 14V16H36V15H40V32H38C37.448 32 37 32.448 37 33C37 33.552 37.448 34 38 34H44C44.552 34 45 33.552 45 33C45 32.448 44.552 32 44 32Z" fill="#1E40AF"/>
</svg>