<svg xmlns="http://www.w3.org/2000/svg" width="48" height="48" viewBox="0 0 48 48" fill="none">
  <rect width="48" height="48" rx="24" fill="#E6F0FF"/>
  <path d="M36 16H12C10.895 16 10 16.895 10 18V34C10 35.105 10.895 36 12 36H36C37.105 36 38 35.105 38 34V18C38 16.895 37.105 16 36 16ZM36 34H12V18H36V34Z" fill="#1E40AF"/>
  <path d="M24 20C21.794 20 20 21.794 20 24C20 26.206 21.794 28 24 28C26.206 28 28 26.206 28 24C28 21.794 26.206 20 24 20ZM24 26C22.897 26 22 25.103 22 24C22 22.897 22.897 22 24 22C25.103 22 26 22.897 26 24C26 25.103 25.103 26 24 26Z" fill="#1E40AF"/>
  <path d="M15 24H17C17.552 24 18 23.552 18 23C18 22.448 17.552 22 17 22H15C14.448 22 14 22.448 14 23C14 23.552 14.448 24 15 24Z" fill="#1E40AF"/>
  <path d="M31 24H33C33.552 24 34 23.552 34 23C34 22.448 33.552 22 33 22H31C30.448 22 30 22.448 30 23C30 23.552 30.448 24 31 24Z" fill="#1E40AF"/>
  <path d="M24 14C24.552 14 25 13.552 25 13V11C25 10.448 24.552 10 24 10C23.448 10 23 10.448 23 11V13C23 13.552 23.448 14 24 14Z" fill="#1E40AF"/>
  <path d="M24 32C23.448 32 23 32.448 23 33V35C23 35.552 23.448 36 24 36C24.552 36 25 35.552 25 35V33C25 32.448 24.552 32 24 32Z" fill="#1E40AF"/>
  <path d="M17.636 19.364C17.927 19.655 18.329 19.658 18.623 19.364C18.914 19.073 18.917 18.671 18.623 18.377L17.209 16.963C16.818 16.572 16.186 16.572 15.795 16.963C15.404 17.354 15.404 17.986 15.795 18.377L17.636 19.364Z" fill="#1E40AF"/>
  <path d="M29.623 29.623C29.232 29.232 28.6 29.232 28.209 29.623C27.818 30.014 27.818 30.646 28.209 31.037L29.623 32.451C29.818 32.646 30.073 32.744 30.33 32.744C30.587 32.744 30.842 32.646 31.037 32.451C31.428 32.06 31.428 31.428 31.037 31.037L29.623 29.623Z" fill="#1E40AF"/>
  <path d="M30.364 19.364L32.205 18.377C32.596 17.986 32.596 17.354 32.205 16.963C31.814 16.572 31.182 16.572 30.791 16.963L29.377 18.377C28.986 18.768 28.986 19.4 29.377 19.791C29.572 19.986 29.827 20.084 30.084 20.084C30.341 20.084 30.596 19.986 30.791 19.791L30.364 19.364Z" fill="#1E40AF"/>
  <path d="M18.377 29.623L16.963 31.037C16.572 31.428 16.572 32.06 16.963 32.451C17.158 32.646 17.413 32.744 17.67 32.744C17.927 32.744 18.182 32.646 18.377 32.451L19.791 31.037C20.182 30.646 20.182 30.014 19.791 29.623C19.4 29.232 18.768 29.232 18.377 29.623Z" fill="#1E40AF"/>
</svg>